<svg width="600" height="400" viewBox="0 0 600 400" fill="none" xmlns="http://www.w3.org/2000/svg">
  <rect width="600" height="400" rx="16" fill="#F8FAFC"/>
  <rect x="40" y="40" width="520" height="60" rx="8" fill="#E2E8F0"/>
  <rect x="60" y="60" width="200" height="20" rx="4" fill="#CBD5E1"/>
  <rect x="280" y="60" width="120" height="20" rx="4" fill="#CBD5E1"/>
  <rect x="420" y="60" width="80" height="20" rx="4" fill="#CBD5E1"/>
  <rect x="40" y="120" width="260" height="240" rx="8" fill="#E2E8F0"/>
  <rect x="320" y="120" width="240" height="120" rx="8" fill="#E2E8F0"/>
  <circle cx="440" cy="180" r="40" fill="#818CF8"/>
  <rect x="60" y="140" width="120" height="12" rx="2" fill="#94A3B8"/>
  <rect x="60" y="164" width="200" height="12" rx="2" fill="#94A3B8"/>
  <rect x="60" y="188" width="160" height="12" rx="2" fill="#94A3B8"/>
  <rect x="60" y="212" width="180" height="12" rx="2" fill="#94A3B8"/>
  <rect x="60" y="236" width="140" height="12" rx="2" fill="#94A3B8"/>
  <rect x="60" y="260" width="120" height="36" rx="8" fill="#4F46E5"/>
  <rect x="320" y="260" width="240" height="100" rx="8" fill="#E2E8F0"/>
  <rect x="340" y="280" width="80" height="12" rx="2" fill="#94A3B8"/>
  <rect x="340" y="304" width="200" height="12" rx="2" fill="#94A3B8"/>
  <rect x="340" y="328" width="160" height="12" rx="2" fill="#94A3B8"/>
</svg>