<svg width="100" height="100" viewBox="0 0 100 100" xmlns="http://www.w3.org/2000/svg">
  <path d="M0 0h100v100H0z" fill="none"/>
  <path d="M30 10a5 5 0 1 1 0 10 5 5 0 0 1 0-10zm40 0a5 5 0 1 1 0 10 5 5 0 0 1 0-10zM10 30a5 5 0 1 1 0 10 5 5 0 0 1 0-10zm40 0a5 5 0 1 1 0 10 5 5 0 0 1 0-10zm40 0a5 5 0 1 1 0 10 5 5 0 0 1 0-10zM10 70a5 5 0 1 1 0 10 5 5 0 0 1 0-10zm40 0a5 5 0 1 1 0 10 5 5 0 0 1 0-10zm40 0a5 5 0 1 1 0 10 5 5 0 0 1 0-10zM30 50a5 5 0 1 1 0 10 5 5 0 0 1 0-10zm40 0a5 5 0 1 1 0 10 5 5 0 0 1 0-10z" fill="currentColor" opacity="0.5"/>
</svg>